# xmcd
#
# Track frame offsets: 
#        150
#        17347
#        36077
#        51285
#        65332
#        86055
#        101820
#        118545
#        136702
#        149650
#        162990
#        176592
#
# Disc length: 2589 seconds
#
# Revision: 4
# Processed by: cddbd v1.5.1PL0 Copyright (c) Steve Scherf et al.
# Submitted via: ExactAudioCopy v0.95b3
#
DISCID=a10a1b0c
DTITLE=Zülfü Livaneli - Maria Faranduri Söylüyor
DYEAR=1900
DGENRE=Folk
TTITLE0=Leylim ley
TTITLE1=Miroloi
TTITLE2=Karli Kayin Ormani
TTITLE3=OParaghios
TTITLE4=Me Fitepsene
TTITLE5=Merhaba
TTITLE6=San to Metanasti
TTITLE7=Hirosima
TTITLE8=Mila Siga
TTITLE9=I Meres Mas
TTITLE10=San Ton Kerem
TTITLE11=To Kopadi
EXTD=
EXTT0=
EXTT1=
EXTT2=
EXTT3=
EXTT4=
EXTT5=
EXTT6=
EXTT7=
EXTT8=
EXTT9=
EXTT10=
EXTT11=
PLAYORDER=
